<mxfile host="app.diagrams.net" modified="2021-05-17T15:54:10.949Z" agent="5.0 (Windows NT 10.0; Win64; x64) AppleWebKit/537.36 (KHTML, like Gecko) Chrome/90.0.4430.212 Safari/537.36" etag="rNywKf0hAfRGuSFhp0kv" version="14.6.13" type="github">
  <diagram id="hIRyk7SR7N8Y48fvBfT1" name="Page-1">
    <mxGraphModel dx="868" dy="394" grid="1" gridSize="10" guides="1" tooltips="1" connect="1" arrows="1" fold="1" page="1" pageScale="1" pageWidth="827" pageHeight="1169" math="0" shadow="0">
      <root>
        <mxCell id="0" />
        <mxCell id="1" parent="0" />
        <mxCell id="M1ACBHdoCcb5qu85m-RQ-12" value="" style="rounded=0;whiteSpace=wrap;html=1;strokeColor=#b85450;fillColor=#f8cecc;" vertex="1" parent="1">
          <mxGeometry x="210" y="100" width="330" height="270" as="geometry" />
        </mxCell>
        <mxCell id="M1ACBHdoCcb5qu85m-RQ-6" value="" style="rounded=0;whiteSpace=wrap;html=1;strokeColor=#6c8ebf;fillColor=#dae8fc;" vertex="1" parent="1">
          <mxGeometry x="570" y="90" width="140" height="280" as="geometry" />
        </mxCell>
        <mxCell id="M1ACBHdoCcb5qu85m-RQ-1" value="" style="rounded=0;whiteSpace=wrap;html=1;fillColor=none;strokeColor=#7EA6E0;strokeWidth=3;" vertex="1" parent="1">
          <mxGeometry x="180" y="70" width="570" height="320" as="geometry" />
        </mxCell>
        <mxCell id="M1ACBHdoCcb5qu85m-RQ-2" value="多种熔断组件" style="rounded=0;whiteSpace=wrap;html=1;strokeColor=#82b366;fillColor=#d5e8d4;" vertex="1" parent="1">
          <mxGeometry x="580" y="120" width="120" height="60" as="geometry" />
        </mxCell>
        <mxCell id="M1ACBHdoCcb5qu85m-RQ-3" value="多种缓存框架" style="rounded=0;whiteSpace=wrap;html=1;strokeColor=#82b366;fillColor=#d5e8d4;" vertex="1" parent="1">
          <mxGeometry x="580" y="200" width="120" height="60" as="geometry" />
        </mxCell>
        <mxCell id="M1ACBHdoCcb5qu85m-RQ-4" value="AOP注解" style="rounded=0;whiteSpace=wrap;html=1;strokeColor=#82b366;fillColor=#d5e8d4;" vertex="1" parent="1">
          <mxGeometry x="580" y="290" width="120" height="60" as="geometry" />
        </mxCell>
        <mxCell id="M1ACBHdoCcb5qu85m-RQ-7" value="热点数据采集" style="rounded=0;whiteSpace=wrap;html=1;fillColor=#fff2cc;strokeColor=#d6b656;" vertex="1" parent="1">
          <mxGeometry x="240" y="140" width="120" height="60" as="geometry" />
        </mxCell>
        <mxCell id="M1ACBHdoCcb5qu85m-RQ-9" value="降级报警" style="rounded=0;whiteSpace=wrap;html=1;fillColor=#fff2cc;strokeColor=#d6b656;" vertex="1" parent="1">
          <mxGeometry x="390" y="140" width="120" height="60" as="geometry" />
        </mxCell>
        <mxCell id="M1ACBHdoCcb5qu85m-RQ-10" value="热点数据预热" style="rounded=0;whiteSpace=wrap;html=1;fillColor=#fff2cc;strokeColor=#d6b656;" vertex="1" parent="1">
          <mxGeometry x="240" y="240" width="120" height="60" as="geometry" />
        </mxCell>
        <mxCell id="M1ACBHdoCcb5qu85m-RQ-11" value="热点数据统计" style="rounded=0;whiteSpace=wrap;html=1;fillColor=#fff2cc;strokeColor=#d6b656;" vertex="1" parent="1">
          <mxGeometry x="390" y="240" width="120" height="60" as="geometry" />
        </mxCell>
      </root>
    </mxGraphModel>
  </diagram>
</mxfile>
